<?xml version="1.0" encoding="UTF-8"?>
<!DOCTYPE svg PUBLIC "-//W3C//DTD SVG 1.1//EN" "http://www.w3.org/Graphics/SVG/1.1/DTD/svg11.dtd">
<!-- Creator: CorelDRAW -->
<svg xmlns="http://www.w3.org/2000/svg" xml:space="preserve" width="3.6in" height="3.6in" version="1.1" style="shape-rendering:geometricPrecision; text-rendering:geometricPrecision; image-rendering:optimizeQuality; fill-rule:evenodd; clip-rule:evenodd"
viewBox="0 0 3600 3600"
 xmlns:xlink="http://www.w3.org/1999/xlink"
 xmlns:xodm="http://www.corel.com/coreldraw/odm/2003">
 <defs>
  <style type="text/css">
   <![CDATA[
    .fil0 {fill:white}
   ]]>
  </style>
 </defs>
 <g id="Layer_x0020_1">
  <metadata id="CorelCorpID_0Corel-Layer"/>
  <g>
   <path class="fil0" d="M2164.48 1696.72c0,57.98 -13.56,112.78 -37.64,161.44l-49.04 -33.33c-0.69,1.49 -1.39,2.98 -2.1,4.45 19.31,-40.1 30.13,-85.06 30.13,-132.55 0,-36.02 -6.22,-70.57 -17.66,-102.67 2.15,6.01 4.11,12.11 5.87,18.28l53.77 -24.84c10.82,34.48 16.67,71.17 16.67,109.22zm-364.48 364.48l-152.63 0 0 -33.39 0 -66 0 -265.09c0,-84.29 68.33,-152.63 152.63,-152.63 84.29,0 152.62,68.34 152.62,152.63 0,84.29 -68.33,152.63 -152.62,152.63l-105.61 134.48 -14.7 18.72 120.31 0c27.28,0 53.73,-3.57 78.91,-10.28 -0.99,0.26 -1.98,0.52 -2.98,0.78l18.82 55.7c-30.22,8.12 -61.97,12.44 -94.75,12.44zm-152.63 153.2l32.32 0 118.46 0 1.85 0 1.85 0c285.06,-1 515.82,-232.39 515.82,-517.68 0,-285.29 -230.77,-516.67 -515.82,-517.67l-1.85 0 -1.85 0c-52.46,0.19 -103.09,8.18 -150.78,22.87 -55.66,17.14 -107.31,43.42 -153.2,77.09 -20.78,15.24 -40.38,31.99 -58.64,50.1 -94.6,93.8 -153.2,223.87 -153.2,367.62l0 517.68 0 206.56 153.2 0 0 -192.85 58.64 0 0 192.85 153.2 0 0 -206.56zm300.73 -184.56l-18.87 -55.85c-2.36,1.11 -4.74,2.18 -7.13,3.22 51.26,-22.34 95.2,-58.32 127.25,-103.36l-0.85 1.18 48.52 32.98c-37.64,52.82 -89.02,95.16 -148.92,121.83zm127.55 -200.49c-2.79,5.79 -4.34,9 0,0zm-18.01 32.21c-2.63,4.11 -5.36,8.15 -8.19,12.12l8.19 -12.12zm18.15 -297.2c3.56,7.41 7.2,14.97 0,0zm-2.35 -4.77c2.41,4.81 2.99,5.94 0,0zm-0.05 -0.1c-30.31,-60.26 -79.96,-109.13 -140.8,-138.45 4.59,2.21 9.11,4.53 13.56,6.96l27.29 -51.92c65.62,35.57 119.09,90.71 152.6,157.58l-53.28 24.61 0.62 1.22zm-175.35 -152.55c-30.78,-10.42 -63.76,-16.06 -98.05,-16.06 -22.47,0 -44.37,2.42 -65.46,7.02l-18.83 -55.74c27.06,-6.45 55.28,-9.89 84.3,-9.93 42.65,0 83.57,7.35 121.62,20.82l-27.62 52.54c1.35,0.44 2.7,0.89 4.04,1.34zm-215.83 7.44c-12.02,5.02 -23.66,10.79 -34.84,17.24 -25.72,14.85 -49.09,33.33 -69.37,54.74l0.77 -0.81 -48.7 -33.11c32.69,-36.18 72.54,-65.77 117.31,-86.54 4.77,-2.21 9.59,-4.32 14.47,-6.33l18.75 55.5 1.62 -0.68zm-137.96 114.55c-31.66,48.17 -50.09,105.82 -50.09,167.77l0 36 -56.31 0c-1.16,-11.84 -1.76,-23.85 -1.76,-36 0,-72.77 21.33,-140.56 58.07,-197.45l0.5 -0.76 48.11 32.7 1.48 -2.26zm-108.73 169.09l0 -1.31 0 -1.31 0 1.31 0 1.31zm58.64 92.67l0 104.36 0 55.13 -58.64 0 0 -159.5 58.64 0zm0 217.48l0 106.25 0 55.68 -58.64 0 0 -105.78 0 -56.15 58.64 0z"/>
  </g>
 </g>
</svg>
